<svg xmlns="http://www.w3.org/2000/svg" viewBox="0 0 512 512" fill="none">
  <defs>
    <linearGradient id="bg" x1="0%" y1="0%" x2="100%" y2="100%">
      <stop offset="0%" style="stop-color:#2563EB"/>
      <stop offset="100%" style="stop-color:#7C3AED"/>
    </linearGradient>
    <linearGradient id="spark" x1="0%" y1="0%" x2="100%" y2="100%">
      <stop offset="0%" style="stop-color:#FFFFFF"/>
      <stop offset="100%" style="stop-color:#E0E7FF"/>
    </linearGradient>
  </defs>
  <!-- Rounded square background -->
  <rect width="512" height="512" rx="108" fill="url(#bg)"/>
  <!-- Document icon (stylized CV) -->
  <rect x="148" y="96" width="216" height="280" rx="16" fill="white" opacity="0.95"/>
  <!-- Document lines -->
  <rect x="184" y="140" width="144" height="12" rx="6" fill="#2563EB" opacity="0.7"/>
  <rect x="184" y="168" width="108" height="8" rx="4" fill="#94A3B8"/>
  <rect x="184" y="188" width="144" height="8" rx="4" fill="#94A3B8"/>
  <rect x="184" y="208" width="120" height="8" rx="4" fill="#94A3B8"/>
  <rect x="184" y="236" width="144" height="8" rx="4" fill="#94A3B8"/>
  <rect x="184" y="256" width="96" height="8" rx="4" fill="#94A3B8"/>
  <rect x="184" y="284" width="144" height="8" rx="4" fill="#94A3B8"/>
  <rect x="184" y="304" width="132" height="8" rx="4" fill="#94A3B8"/>
  <rect x="184" y="332" width="80" height="12" rx="6" fill="#2563EB" opacity="0.5"/>
  <!-- Sparkle / AI star (top right) -->
  <g transform="translate(340, 80)">
    <path d="M40 0 L48 28 L76 36 L48 44 L40 72 L32 44 L4 36 L32 28 Z" fill="url(#spark)"/>
  </g>
  <!-- Small sparkle -->
  <g transform="translate(100, 340)">
    <path d="M24 0 L29 18 L47 23 L29 28 L24 46 L19 28 L1 23 L19 18 Z" fill="url(#spark)"/>
  </g>
  <!-- Checkmark circle (bottom right of document) -->
  <circle cx="350" cy="360" r="44" fill="#10B981"/>
  <path d="M328 360 L344 376 L372 344" stroke="white" stroke-width="8" stroke-linecap="round" stroke-linejoin="round" fill="none"/>
  <!-- Arrow / automation indicator -->
  <path d="M220 410 Q256 450 292 410" stroke="white" stroke-width="6" stroke-linecap="round" fill="none" opacity="0.8"/>
  <path d="M282 402 L292 410 L284 418" stroke="white" stroke-width="6" stroke-linecap="round" stroke-linejoin="round" fill="none" opacity="0.8"/>
</svg>
